<svg xmlns="http://www.w3.org/2000/svg" viewBox="0 0 195 56">
    <style type="text/css">
        .st0 {
            fill: #00A9CE;
        }
        .st1 {
            fill: #FFFFFF;
        }
        .st2 {
            fill: #231F20;
        }
    </style><path class="st0" d="M195 50.8c0 2.3-1.9 4.2-4.2 4.2h-186.6c-2.3 0-4.2-1.9-4.2-4.2v-46.7c0-2.2 1.9-4.1 4.2-4.1h186.7c2.3 0 4.2 1.9 4.2 4.1v46.7z"/><path
        class="st1"
        d="M180.3 26.6c0-1.5-.6-2.7-1.7-3.8-1.2-1-2.5-1.5-4.1-1.5h-10.7c-1.6 0-3 .5-4.1 1.5-1.1 1-1.7 2.3-1.7 3.8v7.9c0 1.5.6 2.7 1.7 3.8 1.2 1 2.5 1.5 4.1 1.5h14.7c1 0 1.5-.8 1.5-1.7 0-.9-.5-1.8-1.5-1.8h-14c-.8 0-1.5 0-2.1-.5-.6-.5-.7-.9-.7-1.7v-1.8h12.8c1.6 0 2.9-.5 4-1.5 1.2-1 1.8-2.7 1.8-4.2m-3.3.2c0 .2 0 .9-.6 1.4-.6.5-1.2.6-1.9.6h-12.8v-2.2c0-.7.1-1 .7-1.4.6-.4 1.4-.4 2.2-.4h10c.8 0 1.4.1 2 .5.4.6.4 1.2.4 1.5m-21-3.8c0-.9-.5-1.7-1.5-1.7h-3.4c-1.1 0-1.4.2-2.3.8-.2-.5-1.1-.8-1.8-.8h-.3c-1 0-1.5.5-1.5 1.4v15.7c0 .9.9 1.4 1.9 1.4 1 0 1.8-.5 1.8-1.4v-11.1c0-.7-.1-1.3.5-1.8s.9-.7 1.7-.7h3.4c1 0 1.5-.8 1.5-1.8m-14.3 15.4v-11.8c0-1.5-.9-3.1-2.1-4.1-1.2-1-2.9-1.2-4.5-1.2h-13.1c-1 0-1.5.8-1.5 1.7 0 .9.5 1.7 1.5 1.7h13.1c.8 0 1.4-.1 2 .4.6.5.8 1.4.8 2.1v1.5h-13.5c-1.6 0-3 .5-4.1 1.6-1.2 1-1.7 2.6-1.7 4.1 0 1.5.6 2.7 1.7 3.8 1.1 1 2.5 1.5 4.1 1.5h10.7c1.1 0 2.1-.3 3-.8.2.5 1 .8 1.7.8 1 .1 1.9-.4 1.9-1.3m-3.7-4.1c0 .7-.3 1.1-.8 1.5-.6.5-1.2.7-2 .7h-10c-.8 0-1.8-.2-2.4-.7-.6-.6-.5-.9-.5-1.7 0-.7.1-1.2.6-1.7.6-.5 1.4-.6 2.2-.6h12.9v2.5zm-20.1-11.2c.1-.2.1-.4.1-.6 0-.9-.8-1.4-1.8-1.4-.7 0-1.5.3-1.8.8l-4.9 12.5-5.5-12.4c-.3-.6-1.1-.8-1.7-.8-1 0-1.9.5-1.9 1.4 0 .2 0 .4.1.6l1.7 3.7-3.4 7.7-5.7-12.6c-.2-.6-.7-.8-1.4-.8-1.3 0-2.2.3-2.2 1.4 0 .3 0 .3.2.7l7.2 15.6c.4.8 1 1 2 1 .6 0 1.3-.5 1.5-1l3.7-8.1 3.8 8.1c.3.7 1.1 1 1.7 1 .6 0 1.5-.4 1.8-1l6.5-15.8zm-45.8 5.2c-.6-.5-.8-1-.8-1.7s.1-1 .6-1.5c.7-.4 1-.4 1.8-.4h10.9c1 0 1.5-.8 1.5-1.7 0-.9-.5-1.7-1.5-1.7h-11c-1.6 0-3 .5-4.1 1.6-1.2 1-1.7 2.3-1.7 3.8s.6 3.1 1.7 4.1c1.1 1 2.5 1.6 4.1 1.6h10.6c.8 0 1.4.1 2 .6.4.5.6.8.6 1.5s-.2 1.1-.7 1.4c-.6.4-1 .5-1.8.5h-15c-1 0-1.5.8-1.5 1.8 0 .9.5 1.7 1.5 1.7h15c1.5 0 2.9-.5 4-1.5 1.2-1 1.8-2.3 1.8-3.8s-.5-2.9-1.7-4c-1.1-1-2.6-1.7-4.2-1.7h-10.1c-.8-.1-1.5-.1-2-.6m-7.5 10.1v-11.8c0-1.5-.9-3.1-2.1-4.1-1.1-1-2.9-1.2-4.5-1.2h-14.4c-1 0-1.5.8-1.5 1.7 0 .9.5 1.7 1.5 1.7h14.4c.8 0 1.4-.1 2 .4.6.5.8 1.4.8 2.1v1.5h-13.4c-1.6 0-3 .5-4.1 1.6-1.1 1-1.7 2.6-1.7 4.1 0 1.5.6 2.7 1.7 3.8 1.2 1 2.5 1.5 4.1 1.5h10.6c1.1 0 2.1-.3 3-.8.2.5 1 .8 1.7.8 1.1.1 1.9-.4 1.9-1.3m-3.7-4.1c0 .7-.3 1.1-.8 1.5-.6.5-1.2.7-2 .7h-10c-.8 0-1.8-.1-2.3-.7-.5-.6-.5-1.2-.5-1.7 0-.7.1-1.2.6-1.7.6-.5 1.4-.6 2.2-.6h12.8v2.5zm-23.9 3.9c1.1-1.1 1.7-2.3 1.7-3.9v-7.6c0-1.5-.6-2.8-1.7-3.9s-2.5-1.6-4.2-1.6h-10.7c-1 0-2 .2-2.9.7v-9c0-1-.8-1.4-1.8-1.4s-1.8.5-1.8 1.4v25.3c0 .9.9 1.4 1.8 1.4.7 0 1.5-.3 1.7-.8.9.5 1.9.8 3 .8h10.7c1.6.2 3-.3 4.2-1.4m-2-4.5c0 .7.1 1.5-.5 2s-.9.5-1.7.5h-10.7c-.8 0-1.5 0-2-.4-.6-.5-.9-1.1-.9-1.8v-6.5c0-.8.3-1.4.9-1.9.6-.5 1.2-.8 2-.8h10.7c.8 0 1.2.3 1.7.8s.5 1.1.5 1.9v6.2z"/></svg>